<svg xmlns="http://www.w3.org/2000/svg" viewBox="0 0 28.5 22.72"><defs><style>.cls-1{fill:#15a488;}</style></defs><g id="레이어_2" data-name="레이어 2"><g id="Layer_1" data-name="Layer 1"><path class="cls-1" d="M23.29,0H1.5A1.5,1.5,0,0,0,0,1.5V6a1.5,1.5,0,0,0,1.5,1.5H23.29A1.5,1.5,0,0,0,24.79,6V1.5A1.5,1.5,0,0,0,23.29,0M4.51,5.26A1.51,1.51,0,1,1,6,3.76a1.5,1.5,0,0,1-1.5,1.5m5.26,0a1.51,1.51,0,1,1,1.5-1.5,1.51,1.51,0,0,1-1.5,1.5m11.64-.57h-6a.94.94,0,1,1,0-1.87h6a.94.94,0,1,1,0,1.87M0,11.27v4.51a1.5,1.5,0,0,0,1.5,1.5H13.61a8.26,8.26,0,0,1-.08-1.1,8.62,8.62,0,0,1,.09-1.24,2.23,2.23,0,0,1,1.3-1.68,2.2,2.2,0,0,1,.27-2.11,8.75,8.75,0,0,1,1.34-1.38H1.5A1.5,1.5,0,0,0,0,11.27M9.77,12a1.51,1.51,0,0,1,0,3,1.51,1.51,0,1,1,0-3M4.51,12A1.51,1.51,0,1,1,3,13.52,1.5,1.5,0,0,1,4.51,12"/><path class="cls-1" d="M28.43,15.22a.3.3,0,0,0-.3-.25h-.62a.65.65,0,0,1-.42-.42,5.27,5.27,0,0,0-.45-1,.3.3,0,0,1,0-.36l.5-.49a.3.3,0,0,0,0-.39,6.55,6.55,0,0,0-1.34-1.34.27.27,0,0,0-.17-.06.31.31,0,0,0-.22.09l-.49.49a.29.29,0,0,1-.21.09.42.42,0,0,1-.15,0,5.43,5.43,0,0,0-1.48-.58V10a.31.31,0,0,0-.25-.3A6.41,6.41,0,0,0,21,9.7a.32.32,0,0,0-.26.3v.93a5.5,5.5,0,0,0-1.47.58.42.42,0,0,1-.15,0,.29.29,0,0,1-.21-.09L18.43,11a.31.31,0,0,0-.22-.09.27.27,0,0,0-.17.06,6.55,6.55,0,0,0-1.34,1.34.3.3,0,0,0,0,.39l.5.49a.3.3,0,0,1,0,.36,4.73,4.73,0,0,0-.45,1,.65.65,0,0,1-.42.42h-.62a.29.29,0,0,0-.3.25,6.62,6.62,0,0,0,0,1.92.29.29,0,0,0,.3.25h.62a.65.65,0,0,1,.42.42,5,5,0,0,0,.45,1,.3.3,0,0,1,0,.36l-.5.49a.3.3,0,0,0,0,.39A6.55,6.55,0,0,0,18,21.42a.27.27,0,0,0,.17.06.31.31,0,0,0,.22-.09l.49-.5a.32.32,0,0,1,.21-.08.28.28,0,0,1,.15,0,5.16,5.16,0,0,0,1.47.57v.93a.3.3,0,0,0,.26.3,6.41,6.41,0,0,0,1.89,0,.29.29,0,0,0,.25-.3v-.93a5.11,5.11,0,0,0,1.48-.57.28.28,0,0,1,.15,0,.32.32,0,0,1,.21.08l.49.5a.31.31,0,0,0,.22.09.27.27,0,0,0,.17-.06,6.55,6.55,0,0,0,1.34-1.34.3.3,0,0,0,0-.39l-.5-.49a.3.3,0,0,1,0-.36,5.54,5.54,0,0,0,.45-1,.65.65,0,0,1,.42-.42h.62a.3.3,0,0,0,.3-.25,6.62,6.62,0,0,0,0-1.92m-4.7,1.24A1.79,1.79,0,0,1,22.24,18,1.43,1.43,0,0,1,22,18a1.8,1.8,0,0,1-.28-3.58l.28,0a1.8,1.8,0,0,1,1.78,2.08M13.31,19.53H3a1.13,1.13,0,0,0,0,2.26h10.3a1.13,1.13,0,0,0,0-2.26"/></g></g></svg>