<svg xmlns="http://www.w3.org/2000/svg" viewBox="0 0 20.26 20.56"><defs><style>.cls-1{fill:#fff;fill-rule:evenodd;}</style></defs><g id="레이어_2" data-name="레이어 2"><g id="Layer_1" data-name="Layer 1"><path class="cls-1" d="M.73,9.3H1a.75.75,0,0,0,.7-.7.54.54,0,0,0,.14-.43c.14-.42-.14-1-.56-1s-1,.14-1,.56a.84.84,0,0,0-.14.56c-.14.43.14,1,.56,1M1.85,12a1.78,1.78,0,0,1-.14-.84,1,1,0,0,0-1-.85.77.77,0,0,0-.7,1A3.57,3.57,0,0,0,.17,12.4a.78.78,0,0,0,.84.7A.14.14,0,0,0,1.15,13c.42,0,.7-.42.7-1m15.82,3.52-3.36.57c-.14.14-.28.42-.14.56l.7.7a8.38,8.38,0,0,1-9.8-.14c-.14-.14-.28-.14-.28-.28A.89.89,0,0,0,3.53,17a.75.75,0,0,0,.14,1.13l.42.42a10.57,10.57,0,0,0,6,2,10.57,10.57,0,0,0,6-2l.7.7c.14.14.42,0,.42-.28l.7-3.23c0-.15-.14-.43-.28-.29M2.55,14.23a.83.83,0,0,0-1.12-.29.77.77,0,0,0-.28,1.13,2.29,2.29,0,0,0,.56,1,.77.77,0,0,0,.7.42c.14,0,.28-.14.42-.14a.92.92,0,0,0,.28-1.27c-.14-.28-.42-.56-.56-.84"/><path class="cls-1" d="M15.19,9.24h-.56A.3.3,0,0,1,14.35,9l-.42-.84V7.83l.42-.43a.26.26,0,0,0,0-.42,7,7,0,0,0-1-1A.26.26,0,0,0,13,6l-.42.43h-.28A2.68,2.68,0,0,0,11.13,6V5.15C11.13,5,11,5,10.85,5a1,1,0,0,0-.7-.14A1.78,1.78,0,0,0,9.31,5a.14.14,0,0,0-.14.14V6a2.68,2.68,0,0,0-1.12.43H7.63L7.35,6a.26.26,0,0,0-.42,0A7,7,0,0,0,6,7,.26.26,0,0,0,6,7.4l.42.43v.28L6,9a.3.3,0,0,1-.28.29H5.11A.14.14,0,0,0,5,9.38a1.78,1.78,0,0,0-.14.84,1.8,1.8,0,0,0,.14.85.14.14,0,0,0,.14.14h.56a.3.3,0,0,1,.28.28l.42.85v.28L6,13a.27.27,0,0,0,0,.43,6.47,6.47,0,0,0,1,1,.25.25,0,0,0,.42,0L7.63,14h.42a2.67,2.67,0,0,0,1.12.42v.85a.14.14,0,0,0,.14.14,1.78,1.78,0,0,0,.84.14,1,1,0,0,0,.7-.14c.14,0,.28,0,.28-.14v-.85A2.67,2.67,0,0,0,12.25,14h.28l.42.42a.25.25,0,0,0,.42,0,6.47,6.47,0,0,0,1-1,.27.27,0,0,0,0-.43l-.42-.42v-.28l.42-.85a.3.3,0,0,1,.28-.28h.56l.14-.14a1.8,1.8,0,0,0,.14-.85,1.78,1.78,0,0,0-.14-.84Zm-3.08,1.41a2.16,2.16,0,0,1-1.54,1.55A2,2,0,0,1,8.19,9.8,2,2,0,0,1,9.73,8.25a2,2,0,0,1,2.38,2.4m6.44-2v.85q.21.84.84.84h.14a.7.7,0,0,0,.7-.84,3.94,3.94,0,0,0-.14-1.27c0-.42-.42-.71-1-.71a.9.9,0,0,0-.56,1.13M16.17,1.9h0a10.5,10.5,0,0,0-12,0l-.7-.7C3.29,1.06,3,1.06,3,1.34l-.7,3.38c0,.15.14.43.28.29L6,4.44c.28-.14.42-.42.14-.56l-.7-.71a8.38,8.38,0,0,1,9.8.14l.28.29a1.06,1.06,0,0,0,.56.14c.28,0,.56,0,.7-.29a.74.74,0,0,0-.14-1.12l-.42-.43m3.22,9.45a1,1,0,0,0-1,.71.51.51,0,0,1-.14.42.87.87,0,0,0,.7,1.13h.14A.94.94,0,0,0,20,13c0-.28.14-.42.14-.7s-.14-.85-.7-1M18.83,6.7a.92.92,0,0,0,.28-1.27,8.84,8.84,0,0,0-.56-1,.85.85,0,0,0-1.12-.14.77.77,0,0,0-.28,1.13,2.84,2.84,0,0,1,.56.85.77.77,0,0,0,.7.42Z"/></g></g></svg>