<svg xmlns="http://www.w3.org/2000/svg" viewBox="0 0 22.69 23.04"><defs><style>.cls-1{fill:#15a488;}</style></defs><g id="레이어_2" data-name="레이어 2"><g id="Layer_1" data-name="Layer 1"><path class="cls-1" d="M10.54,19.78a1.94,1.94,0,0,1-1.17-1.49,5.43,5.43,0,0,1-.06-.55q-.62,0-1.26,0A17.47,17.47,0,0,1,.49,16.21a.34.34,0,0,0-.49.3v1.7s0,0,0,.05,0,0,0,.06c0,2.14,3.62,3.88,8.09,3.88A15.73,15.73,0,0,0,11,21.93a3,3,0,0,1-.22-.26,2,2,0,0,1-.24-1.89m-10-9.53a.33.33,0,0,0-.49.29v3.23A.34.34,0,0,0,.13,14c1.66,1.25,4.66,2.05,7.92,2.05.45,0,.89,0,1.33-.05a2,2,0,0,1,1.16-1.47,2,2,0,0,1,.24-1.89A7.7,7.7,0,0,1,12,11.44a20.2,20.2,0,0,1-3.91.37A17.47,17.47,0,0,1,.49,10.25M8.09,0C3.62,0,0,1.74,0,3.88V7.8a.37.37,0,0,0,.13.28c1.66,1.25,4.66,2.05,7.92,2.05s6.38-.84,8-2.12a.37.37,0,0,0,.13-.27V3.88C16.19,1.74,12.56,0,8.09,0m0,5.54c-2.44,0-4.43-.75-4.43-1.66s2-1.66,4.43-1.66,4.44.74,4.44,1.66-2,1.66-4.44,1.66"/><path class="cls-1" d="M22.62,16.31a.26.26,0,0,0-.26-.22h-.55a.56.56,0,0,1-.38-.37,4.31,4.31,0,0,0-.41-.93.27.27,0,0,1,0-.32L21.5,14a.26.26,0,0,0,0-.35,6.15,6.15,0,0,0-1.19-1.2.27.27,0,0,0-.35,0l-.45.44a.26.26,0,0,1-.32,0,4.89,4.89,0,0,0-1.32-.51v-.83a.27.27,0,0,0-.22-.27,5.2,5.2,0,0,0-1.7,0,.28.28,0,0,0-.23.27v.83a5,5,0,0,0-1.31.51.26.26,0,0,1-.32,0l-.45-.44a.27.27,0,0,0-.35,0,5.88,5.88,0,0,0-1.19,1.2.26.26,0,0,0,0,.35l.44.44a.27.27,0,0,1,0,.32,4.31,4.31,0,0,0-.41.93.56.56,0,0,1-.38.37H11.3a.25.25,0,0,0-.26.22,5,5,0,0,0-.07.87A4.91,4.91,0,0,0,11,18a.25.25,0,0,0,.26.22h.55a.56.56,0,0,1,.38.37,4.31,4.31,0,0,0,.41.93.27.27,0,0,1,0,.32l-.44.44a.26.26,0,0,0,0,.35,5.88,5.88,0,0,0,1.19,1.2.27.27,0,0,0,.35,0l.45-.44a.26.26,0,0,1,.32,0,4.64,4.64,0,0,0,1.31.51v.83A.27.27,0,0,0,16,23a5.2,5.2,0,0,0,1.7,0,.26.26,0,0,0,.22-.27v-.83a4.58,4.58,0,0,0,1.32-.51.26.26,0,0,1,.32,0l.45.44a.27.27,0,0,0,.35,0,6.15,6.15,0,0,0,1.19-1.2.26.26,0,0,0,0-.35l-.44-.44a.27.27,0,0,1,0-.32,4.31,4.31,0,0,0,.41-.93.56.56,0,0,1,.38-.37h.55a.26.26,0,0,0,.26-.22,4.91,4.91,0,0,0,.07-.86,5,5,0,0,0-.07-.87m-4.2,1.12a1.64,1.64,0,0,1-1.34,1.34,1.61,1.61,0,1,1,1.34-1.34"/></g></g></svg>