<svg xmlns="http://www.w3.org/2000/svg" viewBox="0 0 22.05 16.36"><defs><style>.cls-1{fill:#fff;fill-rule:evenodd;}</style></defs><g id="레이어_2" data-name="레이어 2"><g id="Layer_1" data-name="Layer 1"><path class="cls-1" d="M18.78,1.56a2.15,2.15,0,0,0-1.43,1.26,1.93,1.93,0,0,0,0,1.53L15.08,7.14c-.29.28-.14.84.14,1.12a1.08,1.08,0,0,0,1.28,0l2.28-2.79a2.42,2.42,0,0,0,1.7-.56,1.93,1.93,0,0,0,.72-1.39,2.06,2.06,0,0,0-2.42-2"/><path class="cls-1" d="M5.65,11a1.93,1.93,0,0,0,2-2V8.6L9.19,7.05H10l1.55,2.4A1.36,1.36,0,0,0,11,10.72a2,2,0,0,0,4,0,1.91,1.91,0,0,0-1.84-2L11.45,5.92c0-.28.14-.56.14-.84a2,2,0,0,0-4,0c0,.28.14.56.14.84L6.5,7.19c-.28,0-.56-.14-.85-.14a2,2,0,1,0,0,4M21.2,14.67H1.7V.85A.91.91,0,0,0,.85,0,.91.91,0,0,0,0,.85V15.51a.91.91,0,0,0,.85.85H21.2a.85.85,0,1,0,0-1.69"/></g></g></svg>