<svg xmlns="http://www.w3.org/2000/svg" viewBox="0 0 20.08 29.1"><defs><style>.cls-1{fill:#c9caca;}.cls-2{fill:#15a488;}</style></defs><g id="레이어_2" data-name="레이어 2"><g id="Layer_1" data-name="Layer 1"><polygon class="cls-1" points="5.5 2.47 4.21 3.85 3.68 5.22 2.39 5.83 1.46 5.83 1.46 6.68 2.83 7.33 2.75 7.93 3.24 8.3 3.85 9.23 3.04 9.79 3.48 10.24 3.48 10.77 4.37 11.37 4.9 11.74 4.17 11.74 3.16 11.33 2.43 10.64 1.78 11.01 1.66 11.74 1.09 11.74 0.4 11.74 0 12.79 0.93 13.03 1.05 13.56 1.34 13.56 1.9 13.76 2.39 14.78 2.27 16.56 2.75 17.24 3.12 17.97 2.75 18.3 3.28 18.82 2.75 19.39 2.19 20.4 2.55 20.77 2.31 21.17 1.62 21.41 1.05 23.11 1.74 23.88 1.09 24.85 1.17 25.74 2.35 26.88 1.78 26.88 0.85 26.51 0.53 26.88 1.9 28.21 1.98 29.1 3.04 28.78 3.68 27.57 4.05 28.21 4.78 28.21 5.14 27.04 6.56 26.68 6.27 27.32 5.42 28.46 7 28.25 6.72 27.53 7.45 27.32 7.45 26.88 7 26.72 7.81 25.54 8.38 25.46 8.66 26.23 8.46 27 9.47 27.65 9.76 26.15 8.95 26.03 8.9 25.1 9.8 24.53 11.33 24.37 11.86 25.02 12.51 25.02 13.28 25.82 13.48 24.69 13.93 23.88 14.65 22.99 15.46 23.56 17.53 23.68 17.93 22.99 18.74 21.5 19.55 21.01 19.55 19.75 20.08 18.46 20.08 17.24 19.07 17.61 18.94 15.79 19.31 14.45 19.19 13.6 19.39 12.51 19.35 11.25 18.98 9.23 17.41 7.12 16.84 6.19 14.77 3.85 13.28 0.85 12.59 0 11.54 1.62 8.62 1.78 5.83 1.86 5.5 2.47"/><polygon class="cls-2" points="10.86 9.43 11.79 9.67 12.28 9.43 12.84 10.32 14.22 10.59 15.17 10.69 17.03 10.32 17.92 10.69 18.65 9.96 19.13 9.96 19 9.23 17.42 7.12 16.85 6.19 14.79 3.85 13.29 0.85 12.6 0 11.55 1.62 8.63 1.78 5.84 1.86 5.52 2.47 4.22 3.85 3.69 5.22 2.4 5.83 1.47 5.83 1.47 6.68 2.16 7 3.07 6.82 3.38 6.56 3.82 6.84 4.08 7.04 4.37 7.04 4.75 7.22 4.95 7.22 5.28 7.43 5.64 7.33 6.05 7.22 6.27 7.04 6.86 7.57 7.11 7.17 7.22 6.82 7.65 6.58 7.95 7.31 8.19 7.14 8.38 6.82 8.92 7.04 8.92 7.29 9.47 7.29 9.77 7.38 9.71 7.76 9.77 8.24 9.39 9.03 9.43 9.84 10.49 9.84 10.86 9.43"/></g></g></svg>