<svg xmlns="http://www.w3.org/2000/svg" viewBox="0 0 20.44 29.1"><defs><style>.cls-1{fill:#c9caca;}.cls-2{fill:#15a488;}</style></defs><g id="레이어_2" data-name="레이어 2"><g id="Layer_1" data-name="Layer 1"><polygon class="cls-1" points="5.36 2.47 4.07 3.85 3.54 5.22 2.24 6.03 1.44 6.03 1.44 6.48 2.8 7.19 2.72 7.86 3.2 8.26 3.8 9.28 3 9.9 3.44 10.39 3.44 10.97 4.32 11.63 4.84 12.03 4.12 12.03 3.12 11.59 2.4 10.83 1.76 11.23 1.64 12.03 1.08 12.03 0.4 12.03 0 13.19 0.92 13.45 1.04 14.03 1.21 14.03 1.76 14.23 2.24 15.22 2.12 16.95 2.59 17.63 2.95 18.34 2.59 18.65 3.11 19.17 2.59 19.72 2.04 20.71 2.4 21.07 2.16 21.46 1.49 21.7 0.93 23.36 1.61 24.11 0.97 25.06 1.05 25.92 2.2 27.03 1.64 27.03 0.71 26.51 0.38 26.88 1.76 28.21 1.84 29.1 2.89 28.78 3.54 27.57 3.9 28.03 4.93 28.03 5.28 26.93 6.61 26.59 6.34 27.2 5.54 28.26 7.02 28.07 6.76 27.39 7.44 27.2 7.44 26.78 7.02 26.63 7.78 25.52 8.31 25.45 8.58 26.17 8.39 26.89 9.34 27.5 9.61 26.09 8.85 25.98 8.81 25.11 9.64 24.58 11.09 24.42 11.58 25.03 12.36 25.03 13.13 25.83 13.34 24.69 13.78 23.88 14.51 22.99 15.32 23.56 17.38 23.68 17.79 22.99 18.6 21.49 19.44 21.01 19.44 19.75 20.44 18.46 20.44 17.24 18.92 17.61 18.8 15.79 19.16 14.45 19.04 13.6 19.25 12.51 19.2 11.25 18.84 9.23 17.26 7.12 16.69 6.19 14.63 3.85 13.13 0.85 12.44 0 11.39 1.62 8.48 1.78 5.68 1.86 5.36 2.47"/><path class="cls-2" d="M18.92,19.74l-.4.27-.65-.38-.92.11-.4.63H16l-.25.45H14.32l-.48-.53-.53.28-.4-.4H12l-.2-1.05-.61-.25-1.05-.32-.06-.18L9.38,19l-.48.16-.52,1.33.56,1.06-.56,1L9,23.68l.63.85,1.54-.16.53.65h.64l.77.81.2-1.14.45-.81.73-.89.81.57,2.06.12.41-.69.6-1.11-.17-.17.16.17.22-.39.82-.48V19.87Zm-1.15,1.88h0Z"/></g></g></svg>