<svg xmlns="http://www.w3.org/2000/svg" viewBox="0 0 17.92 19.06"><defs><style>.cls-1{fill:#fff;fill-rule:evenodd;}</style></defs><g id="레이어_2" data-name="레이어 2"><g id="Layer_1" data-name="Layer 1"><path class="cls-1" d="M17.92,10.22l-.6-3.37a1.67,1.67,0,0,0-1.58-1.32H14.29a1.66,1.66,0,0,0-1.57,1.32.72.72,0,0,1,.12.48l.72,4a2.64,2.64,0,0,1-.12,1.33l.24,3a.7.7,0,0,0,.73.72h1.21a.69.69,0,0,0,.73-.72l.24-3c0-.12.12-.24.12-.36l1.09-1.45a1.3,1.3,0,0,0,.12-.6m-15-5.78A1.9,1.9,0,0,0,4.84,2.52a1.88,1.88,0,0,0-3.75,0A1.88,1.88,0,0,0,2.91,4.44M15,4.44A1.9,1.9,0,0,0,17,2.52a1.88,1.88,0,0,0-3.75,0A1.88,1.88,0,0,0,15,4.44M3.63,5.53H2.18A1.66,1.66,0,0,0,.61,6.85L0,10.22a1.3,1.3,0,0,0,.12.6l1.09,1.45c0,.12.12.24.12.36l.24,3a.7.7,0,0,0,.73.72H3.51a.7.7,0,0,0,.73-.72l.24-3a2.64,2.64,0,0,1-.12-1.33l.73-4a.72.72,0,0,1,.12-.48A1.67,1.67,0,0,0,3.63,5.53"/><path class="cls-1" d="M9.09,4.58a2.2,2.2,0,0,0,2.2-2.29A2.29,2.29,0,0,0,9.09,0,2.32,2.32,0,0,0,6.75,2.29,2.24,2.24,0,0,0,9.09,4.58m3.43,6.88L11.66,7.6A1.83,1.83,0,0,0,9.82,6H8.1A1.84,1.84,0,0,0,6.26,7.6l-.85,3.86a1.29,1.29,0,0,0,.24.72L6.88,14c.12.12.12.25.12.49l.37,3.62a1,1,0,0,0,1,1H9.57a1,1,0,0,0,1-1l.36-3.62c0-.24,0-.37.13-.49l1.22-1.81a1.29,1.29,0,0,0,.25-.72"/></g></g></svg>