<svg xmlns="http://www.w3.org/2000/svg" xmlns:xlink="http://www.w3.org/1999/xlink" viewBox="0 0 26.04 26.07"><defs><style>.cls-1,.cls-2{fill:none;}.cls-1{clip-rule:evenodd;}.cls-2,.cls-4{fill-rule:evenodd;}.cls-3{clip-path:url(#clip-path);}.cls-4{fill:#15a488;}</style><clipPath id="clip-path" transform="translate(0)"><polygon class="cls-1" points="0 26.07 26.04 26.07 26.04 0 0 0 0 26.07 0 26.07"/></clipPath></defs><g id="레이어_2" data-name="레이어 2"><g id="Layer_1" data-name="Layer 1"><g class="cls-3"><path class="cls-4" d="M24.1,22.19v0h0v0ZM19.86,10.87l-2.81,1.29,3.53,2-.72-3.26ZM17.13,8.6l-.63,2.87,2.81-1.3L17.13,8.6Zm.9-.44,1.46,1.05-.23-1.05Zm2.18-3.45.55,2.45h2L20.21,4.71Zm-3.89-.19L13.56,7.16h2.17l.59-2.64Zm1.92-.91-.79,3.55H19l-.79-3.55ZM16.21,0h.89a.21.21,0,0,1,.22.21V2.56h1.87V.21A.22.22,0,0,1,19.42,0h.89a.22.22,0,0,1,.23.21v3l-.05.11L24.7,7.4V3.9a.21.21,0,0,1,.22-.21h.89A.22.22,0,0,1,26,3.9V8a.22.22,0,0,1-.23.21H21L23.24,18.3l-.41-.46a4.87,4.87,0,0,0-1.48-1l-.19-.07-.21-1-1.66.6-.49,0a2.4,2.4,0,0,0-1.17.32l-.22-.55,3-1.08-4.17-2.32L16,13.9l-.33-.26c-.13-.09-.27-.19-.43-.28a7,7,0,0,0-.67-.43l-.08,0,1.06-4.74h-4.8A.22.22,0,0,1,10.48,8V3.9a.22.22,0,0,1,.23-.21h.89a.21.21,0,0,1,.22.21V7.21l4.16-4v-3A.22.22,0,0,1,16.21,0Z" transform="translate(0)"/><g class="cls-3"><path class="cls-4" d="M11,11.09a5.57,5.57,0,0,1,3.46,1.21,5.93,5.93,0,0,1,2.13,2.59l.4,1a3.52,3.52,0,0,1,2.53-.24,5.09,5.09,0,0,1,2.89,1.52,4.61,4.61,0,0,1,.43.5l.25.41-.21-.22a7,7,0,0,0-.82-.6,3.56,3.56,0,0,0-2.09-.45,3.53,3.53,0,0,0-2.18.76A4.87,4.87,0,0,0,16.45,19a2.5,2.5,0,0,0-.4.8,3.66,3.66,0,0,0-1.47-.06,3,3,0,0,0-1.82,1A3.49,3.49,0,0,0,12,22.12a3.05,3.05,0,0,0,0,1.64,4.39,4.39,0,0,0,1,1.89,3.43,3.43,0,0,0,.33.24l.3.18-10.25,0C2,26-.19,25.26,0,21.52a4.13,4.13,0,0,1,1.7-3,4.69,4.69,0,0,1,2.75-.57,6.74,6.74,0,0,1,.72-3.72A6.26,6.26,0,0,1,7.63,11.8,6.42,6.42,0,0,1,11,11.09Z" transform="translate(0)"/><g class="cls-3"><path class="cls-4" d="M24.26,26.06c.69,0,1.88-.41,1.77-2.33a2.08,2.08,0,0,0-.92-1.55,2.83,2.83,0,0,0-1.47-.29A3.41,3.41,0,0,0,23.25,20a3.34,3.34,0,0,0-3.12-1.6,3.11,3.11,0,0,0-1.86.62,2.8,2.8,0,0,0-1.15,1.33l-.21.52a2.12,2.12,0,0,0-1.37-.12,2.52,2.52,0,0,0-1.55.78,2.65,2.65,0,0,0-.68,1.16,2.32,2.32,0,0,0,0,1.33,3.54,3.54,0,0,0,.83,1.54,2.39,2.39,0,0,0,1.13.53Z" transform="translate(0)"/></g></g></g></g></g></svg>