<svg xmlns="http://www.w3.org/2000/svg" viewBox="0 0 18.92 15.22"><defs><style>.cls-1{fill:#fff;fill-rule:evenodd;}</style></defs><g id="레이어_2" data-name="레이어 2"><g id="Layer_1" data-name="Layer 1"><path class="cls-1" d="M9.46,6C8.13,6,7.05,7,7.05,8.92s1.08,2.89,2.41,2.89,2.41-1,2.41-2.89S10.79,6,9.46,6M4.4,8a1,1,0,0,0-1,1,1,1,0,0,0,1,1,1,1,0,0,0,1-1,1,1,0,0,0-1-1M14.52,8a1,1,0,0,0-1,1,1,1,0,1,0,1.92,0,1,1,0,0,0-1-1M16.21,0H2.71A.77.77,0,0,0,2,.72a.78.78,0,0,0,.72.73h13.5a.7.7,0,0,0,.72-.73A.69.69,0,0,0,16.21,0"/><path class="cls-1" d="M18.68,2.93s0-.13-.12-.13A1,1,0,0,0,18,2.56H1a1,1,0,0,0-1,1V14.25a1,1,0,0,0,1,1H18a1.05,1.05,0,0,0,1-1V3.53a.92.92,0,0,0-.24-.6m-1.46,8.4A2.17,2.17,0,0,0,15,13.52H3.88A2.17,2.17,0,0,0,1.7,11.33V6.46a2.18,2.18,0,0,0,2.18-2.2H15a2.18,2.18,0,0,0,2.18,2.2Z"/></g></g></svg>