<svg xmlns="http://www.w3.org/2000/svg" width="438" height="280">
    <defs>
        <filter id="2nx6l8vxra" width="434" height="171" x="1" y="104" filterUnits="userSpaceOnUse">
            <feOffset dy="5" in="SourceAlpha"/>
            <feGaussianBlur result="blurOut"/>
            <feFlood flood-color="#0094BD" result="floodOut"/>
            <feComposite in="floodOut" in2="blurOut" operator="atop"/>
            <feComponentTransfer>
                <feFuncA type="linear"/>
            </feComponentTransfer>
            <feMerge>
                <feMergeNode/>
                <feMergeNode in="SourceGraphic"/>
            </feMerge>
        </filter>
        <filter id="d3rii22hzb" width="423" height="96" x="0" y="5" filterUnits="userSpaceOnUse">
            <feOffset dy="6" in="SourceAlpha"/>
            <feGaussianBlur result="blurOut"/>
            <feFlood flood-color="#0094BD" result="floodOut"/>
            <feComposite in="floodOut" in2="blurOut" operator="atop"/>
            <feComponentTransfer>
                <feFuncA type="linear"/>
            </feComponentTransfer>
            <feMerge>
                <feMergeNode/>
                <feMergeNode in="SourceGraphic"/>
            </feMerge>
        </filter>
    </defs>
    <path fill="red" fill-opacity="0" fill-rule="evenodd" d="M0 0h438v280H0V0z"/>
    <g filter="url(#2nx6l8vxra)">
        <path fill="#FFF" fill-rule="evenodd" d="M434.16 155.286c-.289 1.117-.756 2.125-1.404 3.024-.648.901-1.531 1.639-2.646 2.214-1.117.577-2.467.864-4.05.864h-3.564V165H423v61c0 46.909-48 43-48 43H15L1 245l14-19h367c15.597 0 19-18 19-18v-43h.112v-49.728c0-3.456 1.08-6.065 3.24-7.83 2.16-1.763 4.644-2.646 7.452-2.646 1.367 0 2.7.235 3.996.702 1.296.469 2.43 1.134 3.402 1.998.972.864 1.763 1.944 2.376 3.24.611 1.296.918 2.808.918 4.536v27.324h3.564c1.655 0 3.024.289 4.104.864 1.08.577 1.944 1.315 2.592 2.214.648.901 1.115 1.909 1.404 3.024.287 1.117.432 2.214.432 3.294s-.145 2.179-.432 3.294zm-61.344 44.766c1.223-8.711 1.169-15.93-.162-21.654-1.333-5.724-3.834-10.133-7.506-13.23-4.681 16.273-12.673 27.469-23.976 33.588-1.369.719-2.773 1.242-4.212 1.566-1.441.324-2.845.432-4.212.324-1.369-.108-2.611-.432-3.726-.972-1.117-.54-2.035-1.279-2.754-2.214-.721-.864-1.279-1.853-1.674-2.97-.397-1.115-.559-2.268-.486-3.456.071-1.188.413-2.357 1.026-3.51.611-1.151 1.529-2.16 2.754-3.024 3.959-2.663 7.236-5.778 9.828-9.342 2.592-3.564 4.679-7.685 6.264-12.366 1.583-4.679 2.7-9.971 3.348-15.876.648-5.903.972-12.563.972-19.98v-8.424c0-3.456 1.08-6.065 3.24-7.83 2.16-1.763 4.644-2.646 7.452-2.646 1.367 0 2.7.235 3.996.702 1.296.469 2.43 1.153 3.402 2.052.972.901 1.763 1.998 2.376 3.294.611 1.296.918 2.773.918 4.428v8.316c0 3.24-.073 6.355-.216 9.342-.145 2.989-.361 5.886-.648 8.694 4.536 1.801 8.495 4.158 11.88 7.074 3.383 2.916 6.137 6.588 8.262 11.016 2.123 4.428 3.599 9.685 4.428 15.768.827 6.085.953 13.195.378 21.33h-20.952zm-61.344 3.996h-82.944c-3.24 0-5.562-.901-6.966-2.7-1.404-1.801-2.106-3.815-2.106-6.048 0-1.08.162-2.141.486-3.186.324-1.043.845-1.979 1.566-2.808.719-.827 1.655-1.493 2.808-1.998 1.151-.503 2.555-.756 4.212-.756h22.14v-32.4c0-1.728.305-3.221.918-4.482.611-1.259 1.421-2.303 2.43-3.132 1.007-.827 2.177-1.421 3.51-1.782 1.331-.359 2.717-.54 4.158-.54 1.367 0 2.717.199 4.05.594 1.331.397 2.519.991 3.564 1.782 1.043.793 1.871 1.819 2.484 3.078.611 1.261.918 2.754.918 4.482v32.4h38.772c1.655 0 3.059.253 4.212.756 1.151.505 2.087 1.171 2.808 1.998.719.829 1.242 1.765 1.566 2.808.324 1.045.486 2.106.486 3.186 0 2.233-.702 4.247-2.106 6.048-1.404 1.799-3.726 2.7-6.966 2.7zm-5.454-25.812c-1.188 1.009-2.503 1.765-3.942 2.268-1.441.505-2.953.756-4.536.756-1.585 0-3.097-.324-4.536-.972-2.376-1.007-3.907-2.7-4.59-5.076-.685-2.376-.486-4.823.594-7.344 1.655-3.743 2.879-8.154 3.672-13.23.791-5.076 1.188-11.249 1.188-18.522v-6.804c0-.791-.235-1.439-.702-1.944-.469-.503-1.134-.756-1.998-.756h-58.644c-1.657 0-3.078-.27-4.266-.81-1.188-.54-2.16-1.259-2.916-2.16-.756-.899-1.333-1.907-1.728-3.024-.397-1.115-.594-2.214-.594-3.294s.179-2.177.54-3.294c.359-1.115.935-2.106 1.728-2.97.791-.864 1.782-1.583 2.97-2.16 1.188-.575 2.609-.864 4.266-.864h65.988c3.167 0 5.813.307 7.938.918 2.123.613 3.834 1.549 5.13 2.808 1.296 1.261 2.214 2.862 2.754 4.806s.81 4.249.81 6.912v12.744c0 17.209-2.089 29.989-6.264 38.34-.721 1.441-1.674 2.665-2.862 3.672zM188.352 188.82c0-1.728-.864-2.592-2.592-2.592h-58.428c-3.024 0-5.346-.791-6.966-2.376-1.62-1.583-2.43-3.635-2.43-6.156 0-2.519.81-4.571 2.43-6.156 1.62-1.583 3.942-2.376 6.966-2.376h66.852c3.383 0 6.119.253 8.208.756 2.087.505 3.707 1.404 4.86 2.7 1.151 1.296 1.925 3.007 2.322 5.13.395 2.125.594 4.806.594 8.046v20.412h-21.816V188.82zm-.108-41.796h-8.748c-1.369 0-2.521-.216-3.456-.648-.937-.432-1.711-1.007-2.322-1.728-.613-.719-1.045-1.547-1.296-2.484-.253-.935-.378-1.871-.378-2.808 0-.864.125-1.745.378-2.646.251-.899.665-1.709 1.242-2.43.575-.719 1.331-1.313 2.268-1.782.935-.467 2.123-.702 3.564-.702h8.748v-4.536h-8.748c-1.369 0-2.521-.216-3.456-.648-.937-.432-1.711-1.007-2.322-1.728-.613-.719-1.045-1.547-1.296-2.484-.253-.935-.378-1.871-.378-2.808 0-.864.125-1.745.378-2.646.251-.899.665-1.709 1.242-2.43.575-.719 1.331-1.313 2.268-1.782.935-.467 2.123-.702 3.564-.702h9.18c.648-2.376 1.944-4.175 3.888-5.4 1.944-1.223 4.067-1.836 6.372-1.836 1.367 0 2.7.235 3.996.702 1.296.469 2.43 1.134 3.402 1.998.972.864 1.763 1.944 2.376 3.24.611 1.296.918 2.808.918 4.536v50.112h-21.384v-18.36zm-51.462-3.186c-.469.54-.702 1.171-.702 1.89v.648c0 .721.233 1.333.702 1.836.467.505 1.205.756 2.214.756h34.452c1.223 0 2.285.235 3.186.702.899.469 1.637 1.08 2.214 1.836.575.756 1.007 1.585 1.296 2.484.287.901.432 1.819.432 2.754 0 1.801-.54 3.51-1.62 5.13s-2.916 2.43-5.508 2.43h-42.876c-2.737 0-5.149-.486-7.236-1.458-2.089-.972-3.834-2.268-5.238-3.888-1.404-1.62-2.467-3.491-3.186-5.616-.721-2.123-1.08-4.301-1.08-6.534v-2.16c0-4.607 1.404-8.405 4.212-11.394 2.808-2.987 6.983-4.482 12.528-4.482h16.308v-3.888c0-.719-.145-1.242-.432-1.566-.289-.324-.937-.486-1.944-.486h-22.896c-2.521 0-4.357-.827-5.508-2.484-1.153-1.655-1.728-3.348-1.728-5.076 0-1.871.575-3.635 1.728-5.292 1.151-1.655 2.987-2.484 5.508-2.484h31.32c5.471 0 9.413 1.261 11.826 3.78 2.411 2.521 3.618 5.797 3.618 9.828v21.924h-29.376c-1.009 0-1.747.27-2.214.81zm-117.99 25.056c2.735-.972 5.975-1.458 9.72-1.458h50.976c3.743 0 6.983.486 9.72 1.458 2.735.972 5.022 2.322 6.858 4.05 1.836 1.728 3.203 3.799 4.104 6.21.899 2.413 1.35 5.059 1.35 7.938 0 5.832-1.801 10.53-5.4 14.094-3.601 3.564-9.145 5.346-16.632 5.346H28.512c-7.489 0-13.033-1.782-16.632-5.346-3.601-3.564-5.4-8.262-5.4-14.094 0-2.879.449-5.525 1.35-7.938.899-2.411 2.268-4.482 4.104-6.21 1.836-1.728 4.121-3.078 6.858-4.05zm10.746 21.114c.756.721 2.214 1.08 4.374 1.08h40.176c2.16 0 3.618-.359 4.374-1.08.756-.719 1.134-1.691 1.134-2.916 0-1.223-.378-2.16-1.134-2.808-.756-.648-2.214-.972-4.374-.972H33.912c-2.16 0-3.618.324-4.374.972-.756.648-1.134 1.585-1.134 2.808 0 1.225.378 2.197 1.134 2.916zm65.934-28.08H12.528c-3.24 0-5.562-.864-6.966-2.592-1.404-1.728-2.106-3.707-2.106-5.94 0-2.16.683-4.121 2.052-5.886 1.367-1.763 3.707-2.646 7.02-2.646h82.944c3.311 0 5.651.883 7.02 2.646 1.367 1.765 2.052 3.726 2.052 5.886 0 2.233-.702 4.212-2.106 5.94-1.404 1.728-3.726 2.592-6.966 2.592zm-3.996-22.572H23.328c-5.616 0-9.595-1.097-11.934-3.294-2.341-2.195-3.51-6.065-3.51-11.61v-7.992c0-1.799.305-3.383.918-4.752.611-1.367 1.421-2.501 2.43-3.402 1.007-.899 2.177-1.566 3.51-1.998 1.331-.432 2.754-.648 4.266-.648 2.951 0 5.508.901 7.668 2.7 2.16 1.801 3.24 4.501 3.24 8.1v3.78c0 1.153.179 1.873.54 2.16.359.289 1.151.432 2.376.432h58.644c3.311 0 5.651.847 7.02 2.538 1.367 1.693 2.052 3.618 2.052 5.778 0 2.233-.702 4.158-2.106 5.778-1.404 1.62-3.726 2.43-6.966 2.43z"/>
    </g>
    <g filter="url(#d3rii22hzb)">
        <path fill="#FFE000" fill-rule="evenodd" d="M403.489 94.22V55.555h-12.445V66.86c0 4.18-.634 7.87-1.9 11.067-1.268 3.199-3.04 5.876-5.32 8.028-2.28 2.152-5.035 3.767-8.265 4.845-3.23 1.076-6.809 1.615-10.735 1.615-3.928 0-7.505-.539-10.735-1.615-3.23-1.078-6.001-2.693-8.313-4.845-2.312-2.152-4.101-4.829-5.367-8.028-1.268-3.197-1.9-6.887-1.9-11.067V32.09c0-4.18.632-7.869 1.9-11.068 1.266-3.197 3.055-5.873 5.367-8.027 2.312-2.152 5.083-3.767 8.313-4.845 3.23-1.076 6.807-1.615 10.735-1.615 3.926 0 7.505.539 10.735 1.615 3.23 1.078 5.985 2.693 8.265 4.845 2.28 2.154 4.052 4.83 5.32 8.027 1.266 3.199 1.9 6.888 1.9 11.068v7.22h12.445V14.23c0-3.04.95-5.335 2.85-6.888 1.9-1.551 4.085-2.327 6.555-2.327 1.202 0 2.375.206 3.515.617 1.14.413 2.152.998 3.04 1.758.886.76 1.599 1.71 2.137 2.85.538 1.14.808 2.47.808 3.99v79.99h-18.905zm-30.97-62.605c0-3.23-.713-5.62-2.138-7.172-1.425-1.552-3.277-2.328-5.557-2.328-2.28 0-4.133.776-5.558 2.328-1.425 1.552-2.137 3.942-2.137 7.172v35.72c0 3.23.712 5.621 2.137 7.172 1.425 1.553 3.278 2.328 5.558 2.328s4.132-.775 5.557-2.328c1.425-1.551 2.138-3.942 2.138-7.172v-35.72zm-49.97 26.505h-74.1c-2.66 0-4.56-.696-5.7-2.09-1.14-1.392-1.71-3.007-1.71-4.845 0-1.772.554-3.387 1.662-4.845 1.108-1.456 3.024-2.185 5.748-2.185h10.07V37.79c-4.878-.57-8.535-2.295-10.973-5.178-2.438-2.881-3.657-6.348-3.657-10.402v-.19c0-2.28.38-4.385 1.14-6.318.76-1.931 1.9-3.61 3.42-5.034 1.52-1.425 3.42-2.533 5.7-3.326 2.28-.791 4.907-1.187 7.885-1.187h46.93c2.976 0 5.605.396 7.885 1.187 2.28.793 4.18 1.901 5.7 3.326 1.52 1.424 2.66 3.103 3.42 5.034.76 1.933 1.14 4.038 1.14 6.318v.19c0 4.054-1.22 7.521-3.658 10.402-2.438 2.883-6.096 4.608-10.972 5.178v6.365h10.07c2.722 0 4.639.729 5.747 2.185 1.108 1.458 1.663 3.073 1.663 4.845 0 1.838-.57 3.453-1.71 4.845-1.14 1.394-3.04 2.09-5.7 2.09zm-45.885-13.965h17.67V37.98h-17.67v6.175zm31.255-22.23c0-.696-.285-1.314-.855-1.852-.57-.538-1.71-.808-3.42-.808h-36.29c-1.71 0-2.85.27-3.42.808-.57.538-.855 1.156-.855 1.852v.38c0 .824.285 1.489.855 1.995.57.508 1.71.76 3.42.76h36.29c1.71 0 2.85-.252 3.42-.76.57-.506.855-1.171.855-1.995v-.38zM227.049 83.4c-5.3 3.933-12.517 5.9-21.65 5.9-4.467 0-8.767-.484-12.9-1.45-4.134-.966-7.567-2.516-10.3-4.65-.934-.8-1.734-1.716-2.4-2.75-.667-1.033-1.15-2.116-1.45-3.25-.3-1.133-.35-2.316-.15-3.55.2-1.233.666-2.416 1.4-3.55.733-1.133 1.766-2 3.1-2.6 1.333-.6 2.666-.933 4-1 1.733-.066 3.116.2 4.15.8 1.033.6 2.016 1.167 2.95 1.7 1.133.734 2.6 1.35 4.4 1.85 1.8.5 4.4.75 7.8.75 2.8 0 4.966-.5 6.5-1.5 1.533-1 2.333-2.6 2.4-4.8 0-.933-.367-1.833-1.1-2.7-.734-.866-1.784-1.666-3.15-2.4-1.367-.733-2.95-1.45-4.75-2.15-1.8-.7-3.734-1.383-5.8-2.05-.8-.266-1.65-.566-2.55-.9-.9-.333-1.65-.633-2.25-.9-3.8-1.6-6.867-3.583-9.2-5.95-2.334-2.366-4.084-4.933-5.25-7.7-1.167-2.766-1.767-5.616-1.8-8.55-.034-2.933.383-5.7 1.25-8.3 1.733-5.4 4.95-9.566 9.65-12.5 4.7-2.933 10.483-4.4 17.35-4.4 2.6 0 4.883.117 6.85.35 1.966.234 3.7.534 5.2.9 1.5.367 2.8.8 3.9 1.3s2.116.984 3.05 1.45c2.333 1.267 4.15 3.034 5.45 5.3 1.3 2.267 1.583 4.6.85 7-.667 2.067-1.784 3.534-3.35 4.4-1.567.867-3.317 1.3-5.25 1.3-.734 0-1.567-.133-2.5-.4-.934-.266-1.634-.566-2.1-.9-1.2-.8-2.734-1.5-4.6-2.1-1.867-.6-4.3-.9-7.3-.9-2.4 0-4.284.484-5.65 1.45-1.367.967-2.084 2.484-2.15 4.55-.067 1.867 1 3.467 3.2 4.8 2.2 1.334 5.3 2.667 9.3 4l4.9 1.7c2.933 1.067 5.583 2.4 7.95 4 2.366 1.6 4.383 3.484 6.05 5.65 1.666 2.167 2.9 4.6 3.7 7.3.8 2.7 1.1 5.65.9 8.85-.467 7.134-3.35 12.667-8.65 16.6zM158.1 87.6h-22l-11.7-50-11.6 50H92.3L75.8 18.1c-.334-1.533-.35-2.933-.05-4.2.3-1.266.816-2.383 1.55-3.35.733-.966 1.65-1.766 2.75-2.4 1.1-.633 2.25-1.05 3.45-1.25 1.266-.2 2.533-.216 3.8-.05 1.266.167 2.45.534 3.55 1.1 1.1.567 2.033 1.35 2.8 2.35.766 1 1.316 2.267 1.65 3.8l9.3 43.8 9.2-41.1c.4-1.466 1.016-2.7 1.85-3.7.833-1 1.733-1.783 2.7-2.35.966-.566 1.983-.966 3.05-1.2 1.066-.233 2.066-.35 3-.35.933 0 1.933.117 3 .35 1.066.234 2.083.634 3.05 1.2.966.567 1.866 1.35 2.7 2.35.833 1 1.45 2.234 1.85 3.7l9.7 43.7 10-46.4c.266-1.533.8-2.8 1.6-3.8s1.733-1.783 2.8-2.35c1.066-.566 2.233-.933 3.5-1.1 1.266-.166 2.533-.15 3.8.05 1.2.2 2.333.617 3.4 1.25 1.066.634 1.95 1.417 2.65 2.35.7.934 1.2 2.05 1.5 3.35.3 1.3.283 2.684-.05 4.15l-15.8 69.6zM55 87.6l-3.9-12.4H25.4l-3.8 12.4H0L25.7 15c1-2.8 2.716-4.883 5.15-6.25 2.433-1.366 5.016-2.05 7.75-2.05 2.533 0 4.983.7 7.35 2.1 2.366 1.4 4.016 3.467 4.95 6.2L77 87.6H55zM38.3 33.4l-7.7 24.9h15.3l-7.6-24.9zm210.244 33.603c1.456-1.426 3.309-2.549 5.557-3.373 2.248-.822 4.86-1.235 7.838-1.235h47.12c2.976 0 5.572.413 7.79 1.235 2.216.824 4.069 1.947 5.557 3.373 1.488 1.424 2.597 3.12 3.325 5.082.728 1.964 1.093 4.085 1.093 6.365 0 2.28-.365 4.403-1.093 6.365-.728 1.964-1.837 3.658-3.325 5.083-1.488 1.424-3.341 2.548-5.557 3.372-2.218.822-4.814 1.235-7.79 1.235h-47.12c-2.978 0-5.59-.413-7.838-1.235-2.248-.824-4.101-1.948-5.557-3.372-1.458-1.425-2.55-3.119-3.278-5.083-.728-1.962-1.092-4.085-1.092-6.365 0-2.28.364-4.401 1.092-6.365.728-1.962 1.82-3.658 3.278-5.082zm15.77 13.585c.506.728 1.677 1.092 3.515 1.092h35.34c1.836 0 3.007-.364 3.515-1.092.506-.728.76-1.44.76-2.138 0-.696-.254-1.409-.76-2.137-.508-.728-1.679-1.093-3.515-1.093h-35.34c-1.838 0-3.009.365-3.515 1.093-.508.728-.76 1.441-.76 2.137 0 .698.252 1.41.76 2.138z"/>
    </g>
    <text fill="#008DB2" font-family="Jalnan" font-size="27.16" transform="matrix(.81 0 0 .81 29.162 256.163)">
        AWAT : AWS Word Ability Test
    </text>
</svg>
